PathFileType	4	(X/Y/Z)	RBDS028\RBDS028runT45.trc
DataRate	CameraRate	NumFrames	NumMarkers	Units	OrigDataRate	OrigDataStartFrame	OrigNumFrames
150.000000	150.000000	4	33	mm	150.000000	3375	4500
Frame#	Time	L.ASIS			L.Heel.Bottom			L.Heel.Lateral			L.Heel.Top			L.Iliac.Crest			L.MT1			L.MT5			L.PSIS			L.Shank.Bottom.Lateral			L.Shank.Bottom.Medial			L.Shank.Top.Lateral			L.Shank.Top.Medial			L.Thigh.Bottom.Lateral			L.Thigh.Bottom.Medial			L.Thigh.Top.Lateral			L.Thigh.Top.Medial			R.ASIS			R.ASY			R.Heel.Bottom			R.Heel.Lateral			R.Heel.Top			R.Iliac.Crest			R.MT1			R.MT5			R.PSIS			R.Shank.Bottom.Lateral			R.Shank.Bottom.Medial			R.Shank.Top.Lateral			R.Shank.Top.Medial			R.Thigh.Bottom.Lateral			R.Thigh.Bottom.Medial			R.Thigh.Top.Lateral			R.Thigh.Top.Medial			
		X1	Y1	Z1	X2	Y2	Z2	X3	Y3	Z3	X4	Y4	Z4	X5	Y5	Z5	X6	Y6	Z6	X7	Y7	Z7	X8	Y8	Z8	X9	Y9	Z9	X10	Y10	Z10	X11	Y11	Z11	X12	Y12	Z12	X13	Y13	Z13	X14	Y14	Z14	X15	Y15	Z15	X16	Y16	Z16	X17	Y17	Z17	X18	Y18	Z18	X19	Y19	Z19	X20	Y20	Z20	X21	Y21	Z21	X22	Y22	Z22	X23	Y23	Z23	X24	Y24	Z24	X25	Y25	Z25	X26	Y26	Z26	X27	Y27	Z27	X28	Y28	Z28	X29	Y29	Z29	X30	Y30	Z30	X31	Y31	Z31	X32	Y32	Z32	X33	Y33	Z33	

3376	22.5	1945.471008837718	831.6883174191402	875.902059134624	1815.398945132611	30.84927116544842	957.003107447174	1847.317998045413	49.04216319784215	916.0076051084807	1830.389740469815	73.80320449215685	962.5377036436289	1868.230661868403	859.3137503151891	861.4513509769599	2036.385228469772	30.1812159850526	1005.472620102881	1999.305771628614	29.7717628054628	892.2033901742673	1802.096291689143	826.4095357658077	978.0685481592628	1926.060562270024	138.7583187322572	899.0922714988709	1887.683277708397	158.5939459859231	927.1179185497215	1943.250594659725	211.9933029577726	867.9390703246808	1910.550607185034	236.2784442068048	902.7427388164298	2009.321430537159	510.7006864947201	819.9093363607101	1955.541643082946	484.1929439224259	860.755542740442	1959.203499868059	608.6177226300262	816.1689118592119	1906.207279867124	582.1105304564384	852.789949144309	1980.591341524492	806.4859808089814	1111.912091852645	1620.990982453119	295.5150931665191	1038.200982749291	1608.643750714039	480.616640808877	1002.258467163481	1616.826534419277	453.6711814653601	1051.000099387858	1649.468003826497	461.3391253937095	1009.135906432625	1938.238981665112	868.3557863845128	1142.463475576028	1574.054197109213	261.9023650419563	989.5369319330097	1564.605466586966	313.066228121315	1091.722836627856	1819.347007758855	822.3874161769398	1068.130774400806	1716.626504211689	401.5625663446132	1086.631936314669	1726.71583415668	439.1204062311376	1047.08073079833	1792.753131491971	412.4077009756069	1113.874422378691	1801.934350620805	447.3392386189126	1073.923441664702	1985.901939467759	464.3104296090687	1167.980773337757	1934.419334434733	447.6895179001335	1121.82911419491	1950.388639113711	569.0391164624738	1171.133239001583	1898.68376005902	551.6566901769016	1130.31260512197	
3377	22.50666666666667	1943.97901565997	831.6093582966007	875.3691165153281	1785.490105078445	32.40119675264015	956.7411457664903	1817.548424807928	50.37667015449772	915.6960834504926	1800.544962245659	75.28736355865267	961.9879464983943	1865.083879368369	857.7445615871956	861.5613767050627	2005.973092598769	31.20494378787679	1005.197378611181	1968.824416921831	30.60892561455619	892.2715652624634	1800.236717764797	826.6069401577719	977.5305746653951	1899.781930344413	139.4882300402295	898.5003803097229	1861.888038187705	161.0896235018078	926.0169278633949	1920.335466253603	211.7656533879596	866.895712345076	1888.425340784533	237.6940088750809	901.3027155044217	1998.795103280929	507.7332323866547	818.584441619016	1943.619627919779	482.8508906151261	858.4363566377667	1951.976382026126	607.347015594937	815.1198522834275	1897.980366161423	582.5084570745671	851.4423282866023	1977.807871907268	805.3119223814391	1111.980551019742	1646.254203601301	286.5589081952072	1038.303298396365	1623.682358430657	470.5937042759287	1005.288472389025	1634.246817828227	443.5701882635595	1053.402642437503	1665.531900449128	453.4713587704069	1011.315953374258	1933.111636427436	866.7576084131751	1142.650541607101	1600.396086652168	251.1776691975573	989.6314810253211	1590.283594815385	300.3170653308617	1092.961996398873	1816.822361601336	821.7801851282101	1067.195441517357	1736.819227484426	395.906057057935	1087.73663802461	1745.355771557894	433.917549856643	1048.374268981722	1812.707070020258	409.0698178820089	1114.590485390558	1820.438100709831	444.4089953114186	1074.76911578736	2001.01254597612	467.7507159833658	1168.609026349209	1950.033978542684	447.8774171074493	1123.260820575089	1959.554413036301	570.2525616227058	1171.379740177676	1908.338315213381	549.5317483844019	1131.534134587343	
3378	22.51333333333334	1942.970894120841	831.9364360702422	875.0605236105629	1755.663483836221	34.26764838417405	956.6906608510195	1787.874579337877	51.90192250643099	915.5290980498648	1770.829414310324	77.08523969297512	961.532265756215	1862.319721015154	857.3029909974258	861.3463568824014	1975.582674284825	32.22706487765112	1004.890414636358	1938.381945008279	31.38426591689439	892.4544970903693	1798.645351504367	827.5221168934107	976.3876693941568	1872.961933679211	140.6547748843834	898.0624965620373	1835.698043718905	163.7456986179884	925.2605349534426	1896.4609780179	211.9295106123129	866.1841034582361	1865.442237851047	239.2400920538447	900.3436748868839	1987.327902620583	505.0808482247905	817.6741173223344	1930.521567311573	482.0988334676743	856.2332641355977	1944.255469475454	606.451865066749	814.2717056939636	1889.133584547799	583.5536811547827	850.1524514922168	1974.865846461286	805.0110898881236	1112.339003220823	1672.175909799274	276.2928022925153	1038.463232798216	1637.989269271971	458.5574589348857	1008.463873468801	1651.10645169742	431.6080782146938	1055.91912211942	1680.865521074807	443.974539423616	1013.62458794778	1927.357602409176	865.8914448502795	1142.724442474098	1627.851136034658	238.8777071704631	989.7047822860792	1616.639351679417	285.7764134548164	1094.158687625462	1814.337560470984	821.8355444274563	1065.633040573887	1756.756419428621	389.5547483699619	1088.834400090729	1763.277510867488	427.9840566882285	1049.629431719434	1832.19600459925	405.7775536497646	1115.155140557854	1838.038742667653	441.4994083259209	1075.440908518554	2015.919677789066	472.7953894248997	1168.864554431004	1965.691670369903	449.8052464937665	1124.228714431943	1968.622616092959	572.7357459269319	1171.359593947648	1918.08599571898	548.7873431453538	1132.442232695779	
3379	22.52	1942.442478238507	832.5736775380578	874.8914921637901	1725.86557896663	36.61745310728084	956.9279142544809	1758.258866416148	53.78281426706946	915.5963020360322	1741.266983094873	79.35010642385163	961.3146290856724	1860.129183590213	857.9490102326635	860.7736114187194	1945.207060847636	33.0740910692932	1004.617473053539	1907.943185446409	32.0602455475927	892.7740457770951	1797.374448612351	829.0406275448594	974.6994756821974	1845.683346140841	142.3168976877165	897.9113323668041	1809.17331813831	166.6427716376497	924.9904454269445	1871.724957224735	212.5932859009562	865.9115188264544	1841.685596684135	241.0402934553377	899.9900752786842	1974.913077468992	502.7967160865338	817.22954877054	1916.370271716606	482.0247794898065	854.3633275633446	1936.006661761676	605.9169695131297	813.6560333143793	1879.72088912923	585.2513424690746	849.0563156152596	1971.930251900834	805.6111771193256	1112.894132878832	1698.746811719692	264.9343685202396	1038.787495454249	1651.883723957157	444.5276337161916	1011.511387870146	1667.601069064279	417.8987533091033	1058.334186502264	1695.709888254247	432.8354740119593	1015.858903115258	1921.385078758872	865.7475063403133	1142.643845144683	1656.456684714068	225.2397582220056	989.9243350308731	1643.642882397345	269.8202130901006	1095.344568110949	1812.01284491573	822.4841593197469	1063.524415817166	1776.419067905857	382.5702717555426	1089.856084706641	1780.528363373548	421.299278553264	1050.74604258556	1851.105316779814	402.5474003307878	1115.528403894677	1854.686983875729	438.5444014685928	1075.870198054909	2030.340216802339	479.3712477549757	1168.750302372723	1981.138873256962	453.4420952490006	1124.645324785399	1977.404164615532	576.4645752189944	1171.046339923601	1927.774510487336	549.449156544926	1132.91177260211	
